<svg xmlns="http://www.w3.org/2000/svg" xmlns:rdkit="http://www.rdkit.org/xml" xmlns:xlink="http://www.w3.org/1999/xlink" version="1.1" baseProfile="full" xml:space="preserve" width="200px" height="400px" viewBox="0 0 200 400">
<!-- END OF HEADER -->
<rect style="opacity:1.0;fill:#FFFFFF;stroke:none" width="200.0" height="400.0" x="0.0" y="0.0"> </rect>
<path class="bond-0 atom-0 atom-1" d="M 19.5,141.0 L 25.2,119.1" style="fill:none;fill-rule:evenodd;stroke:#000000;stroke-width:2.0px;stroke-linecap:butt;stroke-linejoin:miter;stroke-opacity:1"/>
<path class="bond-1 atom-1 atom-2" d="M 25.2,119.1 L 9.1,103.3" style="fill:none;fill-rule:evenodd;stroke:#000000;stroke-width:2.0px;stroke-linecap:butt;stroke-linejoin:miter;stroke-opacity:1"/>
<path class="bond-1 atom-1 atom-2" d="M 25.9,113.5 L 14.7,102.4" style="fill:none;fill-rule:evenodd;stroke:#000000;stroke-width:2.0px;stroke-linecap:butt;stroke-linejoin:miter;stroke-opacity:1"/>
<path class="bond-2 atom-2 atom-3" d="M 9.1,103.3 L 14.8,81.4" style="fill:none;fill-rule:evenodd;stroke:#000000;stroke-width:2.0px;stroke-linecap:butt;stroke-linejoin:miter;stroke-opacity:1"/>
<path class="bond-3 atom-3 atom-4" d="M 14.8,81.4 L 36.6,75.4" style="fill:none;fill-rule:evenodd;stroke:#000000;stroke-width:2.0px;stroke-linecap:butt;stroke-linejoin:miter;stroke-opacity:1"/>
<path class="bond-3 atom-3 atom-4" d="M 19.2,84.9 L 34.5,80.7" style="fill:none;fill-rule:evenodd;stroke:#000000;stroke-width:2.0px;stroke-linecap:butt;stroke-linejoin:miter;stroke-opacity:1"/>
<path class="bond-4 atom-4 atom-5" d="M 36.6,75.4 L 52.6,91.3" style="fill:none;fill-rule:evenodd;stroke:#000000;stroke-width:2.0px;stroke-linecap:butt;stroke-linejoin:miter;stroke-opacity:1"/>
<path class="bond-5 atom-5 atom-6" d="M 52.6,91.3 L 61.9,88.7" style="fill:none;fill-rule:evenodd;stroke:#000000;stroke-width:2.0px;stroke-linecap:butt;stroke-linejoin:miter;stroke-opacity:1"/>
<path class="bond-5 atom-5 atom-6" d="M 61.9,88.7 L 71.2,86.1" style="fill:none;fill-rule:evenodd;stroke:#0000FF;stroke-width:2.0px;stroke-linecap:butt;stroke-linejoin:miter;stroke-opacity:1"/>
<path class="bond-6 atom-6 atom-7" d="M 77.6,88.4 L 84.0,94.8" style="fill:none;fill-rule:evenodd;stroke:#0000FF;stroke-width:2.0px;stroke-linecap:butt;stroke-linejoin:miter;stroke-opacity:1"/>
<path class="bond-6 atom-6 atom-7" d="M 84.0,94.8 L 90.5,101.1" style="fill:none;fill-rule:evenodd;stroke:#000000;stroke-width:2.0px;stroke-linecap:butt;stroke-linejoin:miter;stroke-opacity:1"/>
<path class="bond-7 atom-7 atom-8" d="M 92.7,101.7 L 90.3,110.6" style="fill:none;fill-rule:evenodd;stroke:#000000;stroke-width:2.0px;stroke-linecap:butt;stroke-linejoin:miter;stroke-opacity:1"/>
<path class="bond-7 atom-7 atom-8" d="M 90.3,110.6 L 88.0,119.6" style="fill:none;fill-rule:evenodd;stroke:#FF0000;stroke-width:2.0px;stroke-linecap:butt;stroke-linejoin:miter;stroke-opacity:1"/>
<path class="bond-7 atom-7 atom-8" d="M 88.3,100.6 L 86.0,109.5" style="fill:none;fill-rule:evenodd;stroke:#000000;stroke-width:2.0px;stroke-linecap:butt;stroke-linejoin:miter;stroke-opacity:1"/>
<path class="bond-7 atom-7 atom-8" d="M 86.0,109.5 L 83.7,118.4" style="fill:none;fill-rule:evenodd;stroke:#FF0000;stroke-width:2.0px;stroke-linecap:butt;stroke-linejoin:miter;stroke-opacity:1"/>
<path class="bond-8 atom-7 atom-9" d="M 90.5,101.1 L 112.3,95.1" style="fill:none;fill-rule:evenodd;stroke:#000000;stroke-width:2.0px;stroke-linecap:butt;stroke-linejoin:miter;stroke-opacity:1"/>
<path class="bond-9 atom-9 atom-10" d="M 112.3,95.1 L 128.3,111.0" style="fill:none;fill-rule:evenodd;stroke:#000000;stroke-width:2.0px;stroke-linecap:butt;stroke-linejoin:miter;stroke-opacity:1"/>
<path class="bond-9 atom-9 atom-10" d="M 117.8,94.3 L 129.1,105.4" style="fill:none;fill-rule:evenodd;stroke:#000000;stroke-width:2.0px;stroke-linecap:butt;stroke-linejoin:miter;stroke-opacity:1"/>
<path class="bond-10 atom-10 atom-11" d="M 128.3,111.0 L 150.1,105.0" style="fill:none;fill-rule:evenodd;stroke:#000000;stroke-width:2.0px;stroke-linecap:butt;stroke-linejoin:miter;stroke-opacity:1"/>
<path class="bond-11 atom-11 atom-12" d="M 150.1,105.0 L 156.6,111.3" style="fill:none;fill-rule:evenodd;stroke:#000000;stroke-width:2.0px;stroke-linecap:butt;stroke-linejoin:miter;stroke-opacity:1"/>
<path class="bond-11 atom-11 atom-12" d="M 156.6,111.3 L 163.0,117.7" style="fill:none;fill-rule:evenodd;stroke:#0000FF;stroke-width:2.0px;stroke-linecap:butt;stroke-linejoin:miter;stroke-opacity:1"/>
<path class="bond-12 atom-12 atom-13" d="M 172.3,116.8 L 178.0,115.2" style="fill:none;fill-rule:evenodd;stroke:#0000FF;stroke-width:2.0px;stroke-linecap:butt;stroke-linejoin:miter;stroke-opacity:1"/>
<path class="bond-12 atom-12 atom-13" d="M 178.0,115.2 L 183.7,113.7" style="fill:none;fill-rule:evenodd;stroke:#FF0000;stroke-width:2.0px;stroke-linecap:butt;stroke-linejoin:miter;stroke-opacity:1"/>
<path class="bond-12 atom-12 atom-13" d="M 173.5,121.2 L 179.2,119.6" style="fill:none;fill-rule:evenodd;stroke:#0000FF;stroke-width:2.0px;stroke-linecap:butt;stroke-linejoin:miter;stroke-opacity:1"/>
<path class="bond-12 atom-12 atom-13" d="M 179.2,119.6 L 184.9,118.0" style="fill:none;fill-rule:evenodd;stroke:#FF0000;stroke-width:2.0px;stroke-linecap:butt;stroke-linejoin:miter;stroke-opacity:1"/>
<path class="bond-13 atom-12 atom-14" d="M 165.2,124.8 L 163.4,131.7" style="fill:none;fill-rule:evenodd;stroke:#0000FF;stroke-width:2.0px;stroke-linecap:butt;stroke-linejoin:miter;stroke-opacity:1"/>
<path class="bond-13 atom-12 atom-14" d="M 163.4,131.7 L 161.5,138.7" style="fill:none;fill-rule:evenodd;stroke:#FF0000;stroke-width:2.0px;stroke-linecap:butt;stroke-linejoin:miter;stroke-opacity:1"/>
<path class="bond-14 atom-11 atom-15" d="M 150.1,105.0 L 155.8,83.1" style="fill:none;fill-rule:evenodd;stroke:#000000;stroke-width:2.0px;stroke-linecap:butt;stroke-linejoin:miter;stroke-opacity:1"/>
<path class="bond-14 atom-11 atom-15" d="M 146.6,100.6 L 150.6,85.3" style="fill:none;fill-rule:evenodd;stroke:#000000;stroke-width:2.0px;stroke-linecap:butt;stroke-linejoin:miter;stroke-opacity:1"/>
<path class="bond-15 atom-15 atom-16" d="M 155.8,83.1 L 139.7,67.3" style="fill:none;fill-rule:evenodd;stroke:#000000;stroke-width:2.0px;stroke-linecap:butt;stroke-linejoin:miter;stroke-opacity:1"/>
<path class="bond-16 atom-16 atom-17" d="M 139.7,67.3 L 118.0,73.3" style="fill:none;fill-rule:evenodd;stroke:#000000;stroke-width:2.0px;stroke-linecap:butt;stroke-linejoin:miter;stroke-opacity:1"/>
<path class="bond-16 atom-16 atom-17" d="M 137.7,72.5 L 122.4,76.7" style="fill:none;fill-rule:evenodd;stroke:#000000;stroke-width:2.0px;stroke-linecap:butt;stroke-linejoin:miter;stroke-opacity:1"/>
<path class="bond-17 atom-17 atom-18" d="M 118.0,73.3 L 110.5,65.9" style="fill:none;fill-rule:evenodd;stroke:#000000;stroke-width:2.0px;stroke-linecap:butt;stroke-linejoin:miter;stroke-opacity:1"/>
<path class="bond-17 atom-17 atom-18" d="M 110.5,65.9 L 103.0,58.6" style="fill:none;fill-rule:evenodd;stroke:#00CC00;stroke-width:2.0px;stroke-linecap:butt;stroke-linejoin:miter;stroke-opacity:1"/>
<path class="bond-18 atom-5 atom-19" d="M 52.6,91.3 L 46.9,113.1" style="fill:none;fill-rule:evenodd;stroke:#000000;stroke-width:2.0px;stroke-linecap:butt;stroke-linejoin:miter;stroke-opacity:1"/>
<path class="bond-18 atom-5 atom-19" d="M 47.4,93.4 L 43.4,108.7" style="fill:none;fill-rule:evenodd;stroke:#000000;stroke-width:2.0px;stroke-linecap:butt;stroke-linejoin:miter;stroke-opacity:1"/>
<path class="bond-19 atom-19 atom-20" d="M 46.9,113.1 L 53.4,119.5" style="fill:none;fill-rule:evenodd;stroke:#000000;stroke-width:2.0px;stroke-linecap:butt;stroke-linejoin:miter;stroke-opacity:1"/>
<path class="bond-19 atom-19 atom-20" d="M 53.4,119.5 L 59.8,125.8" style="fill:none;fill-rule:evenodd;stroke:#00CC00;stroke-width:2.0px;stroke-linecap:butt;stroke-linejoin:miter;stroke-opacity:1"/>
<path class="bond-20 atom-19 atom-1" d="M 46.9,113.1 L 25.2,119.1" style="fill:none;fill-rule:evenodd;stroke:#000000;stroke-width:2.0px;stroke-linecap:butt;stroke-linejoin:miter;stroke-opacity:1"/>
<path class="bond-21 atom-17 atom-9" d="M 118.0,73.3 L 112.3,95.1" style="fill:none;fill-rule:evenodd;stroke:#000000;stroke-width:2.0px;stroke-linecap:butt;stroke-linejoin:miter;stroke-opacity:1"/>
<path class="atom-6" d="M 73.0 82.1 L 75.1 85.5 Q 75.3 85.8, 75.6 86.4 Q 76.0 87.0, 76.0 87.0 L 76.0 82.1 L 76.8 82.1 L 76.8 88.5 L 76.0 88.5 L 73.7 84.8 Q 73.4 84.3, 73.2 83.8 Q 72.9 83.3, 72.8 83.2 L 72.8 88.5 L 72.0 88.5 L 72.0 82.1 L 73.0 82.1 " fill="#0000FF"/>
<path class="atom-6" d="M 71.9 75.0 L 72.8 75.0 L 72.8 77.8 L 76.0 77.8 L 76.0 75.0 L 76.9 75.0 L 76.9 81.4 L 76.0 81.4 L 76.0 78.5 L 72.8 78.5 L 72.8 81.4 L 71.9 81.4 L 71.9 75.0 " fill="#0000FF"/>
<path class="atom-8" d="M 81.9 123.0 Q 81.9 121.5, 82.6 120.6 Q 83.4 119.7, 84.8 119.7 Q 86.2 119.7, 87.0 120.6 Q 87.7 121.5, 87.7 123.0 Q 87.7 124.6, 87.0 125.4 Q 86.2 126.3, 84.8 126.3 Q 83.4 126.3, 82.6 125.4 Q 81.9 124.6, 81.9 123.0 M 84.8 125.6 Q 85.8 125.6, 86.3 124.9 Q 86.8 124.3, 86.8 123.0 Q 86.8 121.7, 86.3 121.1 Q 85.8 120.5, 84.8 120.5 Q 83.8 120.5, 83.3 121.1 Q 82.8 121.7, 82.8 123.0 Q 82.8 124.3, 83.3 124.9 Q 83.8 125.6, 84.8 125.6 " fill="#FF0000"/>
<path class="atom-12" d="M 164.8 117.6 L 166.9 121.0 Q 167.1 121.4, 167.4 122.0 Q 167.8 122.6, 167.8 122.6 L 167.8 117.6 L 168.6 117.6 L 168.6 124.0 L 167.8 124.0 L 165.5 120.3 Q 165.2 119.9, 165.0 119.4 Q 164.7 118.9, 164.6 118.7 L 164.6 124.0 L 163.8 124.0 L 163.8 117.6 L 164.8 117.6 " fill="#0000FF"/>
<path class="atom-12" d="M 169.4 118.8 L 170.5 118.8 L 170.5 117.6 L 171.0 117.6 L 171.0 118.8 L 172.2 118.8 L 172.2 119.2 L 171.0 119.2 L 171.0 120.4 L 170.5 120.4 L 170.5 119.2 L 169.4 119.2 L 169.4 118.8 " fill="#0000FF"/>
<path class="atom-13" d="M 185.0 114.8 Q 185.0 113.3, 185.8 112.5 Q 186.6 111.6, 188.0 111.6 Q 189.4 111.6, 190.2 112.5 Q 190.9 113.3, 190.9 114.8 Q 190.9 116.4, 190.1 117.3 Q 189.4 118.2, 188.0 118.2 Q 186.6 118.2, 185.8 117.3 Q 185.0 116.4, 185.0 114.8 M 188.0 117.4 Q 188.9 117.4, 189.5 116.8 Q 190.0 116.1, 190.0 114.8 Q 190.0 113.6, 189.5 113.0 Q 188.9 112.3, 188.0 112.3 Q 187.0 112.3, 186.5 112.9 Q 185.9 113.6, 185.9 114.8 Q 185.9 116.1, 186.5 116.8 Q 187.0 117.4, 188.0 117.4 " fill="#FF0000"/>
<path class="atom-14" d="M 157.6 142.7 Q 157.6 141.2, 158.3 140.3 Q 159.1 139.4, 160.5 139.4 Q 161.9 139.4, 162.7 140.3 Q 163.4 141.2, 163.4 142.7 Q 163.4 144.3, 162.7 145.1 Q 161.9 146.0, 160.5 146.0 Q 159.1 146.0, 158.3 145.1 Q 157.6 144.3, 157.6 142.7 M 160.5 145.3 Q 161.5 145.3, 162.0 144.6 Q 162.5 144.0, 162.5 142.7 Q 162.5 141.4, 162.0 140.8 Q 161.5 140.2, 160.5 140.2 Q 159.5 140.2, 159.0 140.8 Q 158.5 141.4, 158.5 142.7 Q 158.5 144.0, 159.0 144.6 Q 159.5 145.3, 160.5 145.3 " fill="#FF0000"/>
<path class="atom-14" d="M 163.9 140.5 L 166.1 140.5 L 166.1 141.0 L 163.9 141.0 L 163.9 140.5 " fill="#FF0000"/>
<path class="atom-18" d="M 96.2 57.6 Q 96.2 56.0, 96.9 55.2 Q 97.6 54.4, 99.1 54.4 Q 100.4 54.4, 101.1 55.3 L 100.5 55.8 Q 100.0 55.1, 99.1 55.1 Q 98.1 55.1, 97.6 55.8 Q 97.1 56.4, 97.1 57.6 Q 97.1 58.9, 97.6 59.5 Q 98.1 60.2, 99.2 60.2 Q 99.9 60.2, 100.7 59.8 L 100.9 60.5 Q 100.6 60.7, 100.1 60.8 Q 99.6 60.9, 99.0 60.9 Q 97.6 60.9, 96.9 60.1 Q 96.2 59.2, 96.2 57.6 " fill="#00CC00"/>
<path class="atom-18" d="M 101.5 54.0 L 102.3 54.0 L 102.3 60.8 L 101.5 60.8 L 101.5 54.0 " fill="#00CC00"/>
<path class="atom-20" d="M 60.6 129.2 Q 60.6 127.6, 61.3 126.8 Q 62.1 125.9, 63.5 125.9 Q 64.8 125.9, 65.5 126.9 L 64.9 127.4 Q 64.4 126.7, 63.5 126.7 Q 62.5 126.7, 62.0 127.3 Q 61.5 128.0, 61.5 129.2 Q 61.5 130.5, 62.0 131.1 Q 62.5 131.8, 63.6 131.8 Q 64.3 131.8, 65.1 131.3 L 65.4 132.0 Q 65.0 132.2, 64.5 132.4 Q 64.0 132.5, 63.4 132.5 Q 62.1 132.5, 61.3 131.6 Q 60.6 130.8, 60.6 129.2 " fill="#00CC00"/>
<path class="atom-20" d="M 65.9 125.6 L 66.7 125.6 L 66.7 132.4 L 65.9 132.4 L 65.9 125.6 " fill="#00CC00"/>
<path class="bond-0 atom-0 atom-1" d="M 67.9,340.8 L 48.9,328.7" style="fill:none;fill-rule:evenodd;stroke:#000000;stroke-width:2.0px;stroke-linecap:butt;stroke-linejoin:miter;stroke-opacity:1"/>
<path class="bond-1 atom-1 atom-2" d="M 48.9,328.7 L 28.8,339.0" style="fill:none;fill-rule:evenodd;stroke:#000000;stroke-width:2.0px;stroke-linecap:butt;stroke-linejoin:miter;stroke-opacity:1"/>
<path class="bond-1 atom-1 atom-2" d="M 43.8,326.2 L 29.8,333.5" style="fill:none;fill-rule:evenodd;stroke:#000000;stroke-width:2.0px;stroke-linecap:butt;stroke-linejoin:miter;stroke-opacity:1"/>
<path class="bond-2 atom-2 atom-3" d="M 28.8,339.0 L 9.8,326.8" style="fill:none;fill-rule:evenodd;stroke:#000000;stroke-width:2.0px;stroke-linecap:butt;stroke-linejoin:miter;stroke-opacity:1"/>
<path class="bond-3 atom-3 atom-4" d="M 9.8,326.8 L 10.9,304.3" style="fill:none;fill-rule:evenodd;stroke:#000000;stroke-width:2.0px;stroke-linecap:butt;stroke-linejoin:miter;stroke-opacity:1"/>
<path class="bond-3 atom-3 atom-4" d="M 14.5,323.7 L 15.2,307.9" style="fill:none;fill-rule:evenodd;stroke:#000000;stroke-width:2.0px;stroke-linecap:butt;stroke-linejoin:miter;stroke-opacity:1"/>
<path class="bond-4 atom-4 atom-5" d="M 10.9,304.3 L 30.9,293.9" style="fill:none;fill-rule:evenodd;stroke:#000000;stroke-width:2.0px;stroke-linecap:butt;stroke-linejoin:miter;stroke-opacity:1"/>
<path class="bond-5 atom-5 atom-6" d="M 30.9,293.9 L 32.0,271.3" style="fill:none;fill-rule:evenodd;stroke:#000000;stroke-width:2.0px;stroke-linecap:butt;stroke-linejoin:miter;stroke-opacity:1"/>
<path class="bond-6 atom-6 atom-7" d="M 32.0,271.3 L 52.0,261.0" style="fill:none;fill-rule:evenodd;stroke:#000000;stroke-width:2.0px;stroke-linecap:butt;stroke-linejoin:miter;stroke-opacity:1"/>
<path class="bond-7 atom-6 atom-8" d="M 32.0,271.3 L 13.0,259.2" style="fill:none;fill-rule:evenodd;stroke:#000000;stroke-width:2.0px;stroke-linecap:butt;stroke-linejoin:miter;stroke-opacity:1"/>
<path class="bond-8 atom-5 atom-9" d="M 30.9,293.9 L 50.0,306.1" style="fill:none;fill-rule:evenodd;stroke:#000000;stroke-width:2.0px;stroke-linecap:butt;stroke-linejoin:miter;stroke-opacity:1"/>
<path class="bond-8 atom-5 atom-9" d="M 31.4,299.5 L 44.7,308.1" style="fill:none;fill-rule:evenodd;stroke:#000000;stroke-width:2.0px;stroke-linecap:butt;stroke-linejoin:miter;stroke-opacity:1"/>
<path class="bond-9 atom-9 atom-10" d="M 50.0,306.1 L 58.4,301.7" style="fill:none;fill-rule:evenodd;stroke:#000000;stroke-width:2.0px;stroke-linecap:butt;stroke-linejoin:miter;stroke-opacity:1"/>
<path class="bond-9 atom-9 atom-10" d="M 58.4,301.7 L 66.8,297.4" style="fill:none;fill-rule:evenodd;stroke:#0000FF;stroke-width:2.0px;stroke-linecap:butt;stroke-linejoin:miter;stroke-opacity:1"/>
<path class="bond-10 atom-10 atom-11" d="M 73.2,297.8 L 81.1,302.8" style="fill:none;fill-rule:evenodd;stroke:#0000FF;stroke-width:2.0px;stroke-linecap:butt;stroke-linejoin:miter;stroke-opacity:1"/>
<path class="bond-10 atom-10 atom-11" d="M 81.1,302.8 L 89.0,307.9" style="fill:none;fill-rule:evenodd;stroke:#000000;stroke-width:2.0px;stroke-linecap:butt;stroke-linejoin:miter;stroke-opacity:1"/>
<path class="bond-11 atom-11 atom-12" d="M 91.3,308.0 L 90.8,317.3" style="fill:none;fill-rule:evenodd;stroke:#000000;stroke-width:2.0px;stroke-linecap:butt;stroke-linejoin:miter;stroke-opacity:1"/>
<path class="bond-11 atom-11 atom-12" d="M 90.8,317.3 L 90.4,326.6" style="fill:none;fill-rule:evenodd;stroke:#FF0000;stroke-width:2.0px;stroke-linecap:butt;stroke-linejoin:miter;stroke-opacity:1"/>
<path class="bond-11 atom-11 atom-12" d="M 86.8,307.8 L 86.3,317.1" style="fill:none;fill-rule:evenodd;stroke:#000000;stroke-width:2.0px;stroke-linecap:butt;stroke-linejoin:miter;stroke-opacity:1"/>
<path class="bond-11 atom-11 atom-12" d="M 86.3,317.1 L 85.9,326.4" style="fill:none;fill-rule:evenodd;stroke:#FF0000;stroke-width:2.0px;stroke-linecap:butt;stroke-linejoin:miter;stroke-opacity:1"/>
<path class="bond-12 atom-11 atom-13" d="M 89.0,307.9 L 109.1,297.5" style="fill:none;fill-rule:evenodd;stroke:#000000;stroke-width:2.0px;stroke-linecap:butt;stroke-linejoin:miter;stroke-opacity:1"/>
<path class="bond-13 atom-13 atom-14" d="M 109.1,297.5 L 128.1,309.7" style="fill:none;fill-rule:evenodd;stroke:#000000;stroke-width:2.0px;stroke-linecap:butt;stroke-linejoin:miter;stroke-opacity:1"/>
<path class="bond-13 atom-13 atom-14" d="M 114.4,295.6 L 127.7,304.1" style="fill:none;fill-rule:evenodd;stroke:#000000;stroke-width:2.0px;stroke-linecap:butt;stroke-linejoin:miter;stroke-opacity:1"/>
<path class="bond-14 atom-14 atom-15" d="M 128.1,309.7 L 148.2,299.4" style="fill:none;fill-rule:evenodd;stroke:#000000;stroke-width:2.0px;stroke-linecap:butt;stroke-linejoin:miter;stroke-opacity:1"/>
<path class="bond-15 atom-15 atom-16" d="M 148.2,299.4 L 156.1,304.4" style="fill:none;fill-rule:evenodd;stroke:#000000;stroke-width:2.0px;stroke-linecap:butt;stroke-linejoin:miter;stroke-opacity:1"/>
<path class="bond-15 atom-15 atom-16" d="M 156.1,304.4 L 164.0,309.5" style="fill:none;fill-rule:evenodd;stroke:#0000FF;stroke-width:2.0px;stroke-linecap:butt;stroke-linejoin:miter;stroke-opacity:1"/>
<path class="bond-16 atom-16 atom-17" d="M 172.8,306.1 L 177.7,303.6" style="fill:none;fill-rule:evenodd;stroke:#0000FF;stroke-width:2.0px;stroke-linecap:butt;stroke-linejoin:miter;stroke-opacity:1"/>
<path class="bond-16 atom-16 atom-17" d="M 177.7,303.6 L 182.5,301.1" style="fill:none;fill-rule:evenodd;stroke:#FF0000;stroke-width:2.0px;stroke-linecap:butt;stroke-linejoin:miter;stroke-opacity:1"/>
<path class="bond-16 atom-16 atom-17" d="M 174.9,310.1 L 179.8,307.6" style="fill:none;fill-rule:evenodd;stroke:#0000FF;stroke-width:2.0px;stroke-linecap:butt;stroke-linejoin:miter;stroke-opacity:1"/>
<path class="bond-16 atom-16 atom-17" d="M 179.8,307.6 L 184.6,305.1" style="fill:none;fill-rule:evenodd;stroke:#FF0000;stroke-width:2.0px;stroke-linecap:butt;stroke-linejoin:miter;stroke-opacity:1"/>
<path class="bond-17 atom-16 atom-18" d="M 167.0,315.5 L 166.7,322.8" style="fill:none;fill-rule:evenodd;stroke:#0000FF;stroke-width:2.0px;stroke-linecap:butt;stroke-linejoin:miter;stroke-opacity:1"/>
<path class="bond-17 atom-16 atom-18" d="M 166.7,322.8 L 166.3,330.1" style="fill:none;fill-rule:evenodd;stroke:#FF0000;stroke-width:2.0px;stroke-linecap:butt;stroke-linejoin:miter;stroke-opacity:1"/>
<path class="bond-18 atom-15 atom-19" d="M 148.2,299.4 L 149.2,276.8" style="fill:none;fill-rule:evenodd;stroke:#000000;stroke-width:2.0px;stroke-linecap:butt;stroke-linejoin:miter;stroke-opacity:1"/>
<path class="bond-18 atom-15 atom-19" d="M 143.8,295.8 L 144.5,280.0" style="fill:none;fill-rule:evenodd;stroke:#000000;stroke-width:2.0px;stroke-linecap:butt;stroke-linejoin:miter;stroke-opacity:1"/>
<path class="bond-19 atom-19 atom-20" d="M 149.2,276.8 L 130.2,264.6" style="fill:none;fill-rule:evenodd;stroke:#000000;stroke-width:2.0px;stroke-linecap:butt;stroke-linejoin:miter;stroke-opacity:1"/>
<path class="bond-20 atom-20 atom-21" d="M 130.2,264.6 L 110.1,275.0" style="fill:none;fill-rule:evenodd;stroke:#000000;stroke-width:2.0px;stroke-linecap:butt;stroke-linejoin:miter;stroke-opacity:1"/>
<path class="bond-20 atom-20 atom-21" d="M 129.3,270.2 L 115.2,277.4" style="fill:none;fill-rule:evenodd;stroke:#000000;stroke-width:2.0px;stroke-linecap:butt;stroke-linejoin:miter;stroke-opacity:1"/>
<path class="bond-21 atom-21 atom-22" d="M 110.1,275.0 L 101.2,269.3" style="fill:none;fill-rule:evenodd;stroke:#000000;stroke-width:2.0px;stroke-linecap:butt;stroke-linejoin:miter;stroke-opacity:1"/>
<path class="bond-21 atom-21 atom-22" d="M 101.2,269.3 L 92.3,263.5" style="fill:none;fill-rule:evenodd;stroke:#00CC00;stroke-width:2.0px;stroke-linecap:butt;stroke-linejoin:miter;stroke-opacity:1"/>
<path class="bond-22 atom-9 atom-1" d="M 50.0,306.1 L 48.9,328.7" style="fill:none;fill-rule:evenodd;stroke:#000000;stroke-width:2.0px;stroke-linecap:butt;stroke-linejoin:miter;stroke-opacity:1"/>
<path class="bond-23 atom-21 atom-13" d="M 110.1,275.0 L 109.1,297.5" style="fill:none;fill-rule:evenodd;stroke:#000000;stroke-width:2.0px;stroke-linecap:butt;stroke-linejoin:miter;stroke-opacity:1"/>
<path class="atom-10" d="M 68.6 292.5 L 70.7 295.9 Q 70.9 296.2, 71.2 296.9 Q 71.6 297.5, 71.6 297.5 L 71.6 292.5 L 72.4 292.5 L 72.4 298.9 L 71.6 298.9 L 69.3 295.2 Q 69.1 294.8, 68.8 294.3 Q 68.5 293.8, 68.4 293.6 L 68.4 298.9 L 67.6 298.9 L 67.6 292.5 L 68.6 292.5 " fill="#0000FF"/>
<path class="atom-10" d="M 67.5 285.5 L 68.4 285.5 L 68.4 288.2 L 71.6 288.2 L 71.6 285.5 L 72.5 285.5 L 72.5 291.9 L 71.6 291.9 L 71.6 288.9 L 68.4 288.9 L 68.4 291.9 L 67.5 291.9 L 67.5 285.5 " fill="#0000FF"/>
<path class="atom-12" d="M 85.0 330.5 Q 85.0 329.0, 85.8 328.1 Q 86.6 327.2, 88.0 327.2 Q 89.4 327.2, 90.2 328.1 Q 90.9 329.0, 90.9 330.5 Q 90.9 332.0, 90.1 332.9 Q 89.4 333.8, 88.0 333.8 Q 86.6 333.8, 85.8 332.9 Q 85.0 332.1, 85.0 330.5 M 88.0 333.1 Q 89.0 333.1, 89.5 332.4 Q 90.0 331.8, 90.0 330.5 Q 90.0 329.2, 89.5 328.6 Q 89.0 328.0, 88.0 328.0 Q 87.0 328.0, 86.5 328.6 Q 85.9 329.2, 85.9 330.5 Q 85.9 331.8, 86.5 332.4 Q 87.0 333.1, 88.0 333.1 " fill="#FF0000"/>
<path class="atom-16" d="M 165.8 308.3 L 167.9 311.7 Q 168.1 312.1, 168.4 312.7 Q 168.7 313.3, 168.8 313.3 L 168.8 308.3 L 169.6 308.3 L 169.6 314.7 L 168.7 314.7 L 166.5 311.0 Q 166.2 310.6, 165.9 310.1 Q 165.7 309.6, 165.6 309.5 L 165.6 314.7 L 164.7 314.7 L 164.7 308.3 L 165.8 308.3 " fill="#0000FF"/>
<path class="atom-16" d="M 170.3 309.5 L 171.5 309.5 L 171.5 308.3 L 172.0 308.3 L 172.0 309.5 L 173.1 309.5 L 173.1 309.9 L 172.0 309.9 L 172.0 311.1 L 171.5 311.1 L 171.5 309.9 L 170.3 309.9 L 170.3 309.5 " fill="#0000FF"/>
<path class="atom-17" d="M 184.3 301.2 Q 184.3 299.7, 185.1 298.8 Q 185.8 297.9, 187.2 297.9 Q 188.7 297.9, 189.4 298.8 Q 190.2 299.7, 190.2 301.2 Q 190.2 302.7, 189.4 303.6 Q 188.6 304.5, 187.2 304.5 Q 185.8 304.5, 185.1 303.6 Q 184.3 302.7, 184.3 301.2 M 187.2 303.8 Q 188.2 303.8, 188.7 303.1 Q 189.3 302.5, 189.3 301.2 Q 189.3 299.9, 188.7 299.3 Q 188.2 298.7, 187.2 298.7 Q 186.3 298.7, 185.7 299.3 Q 185.2 299.9, 185.2 301.2 Q 185.2 302.5, 185.7 303.1 Q 186.3 303.8, 187.2 303.8 " fill="#FF0000"/>
<path class="atom-18" d="M 163.2 334.1 Q 163.2 332.6, 163.9 331.7 Q 164.7 330.9, 166.1 330.9 Q 167.5 330.9, 168.3 331.7 Q 169.1 332.6, 169.1 334.1 Q 169.1 335.7, 168.3 336.6 Q 167.5 337.4, 166.1 337.4 Q 164.7 337.4, 163.9 336.6 Q 163.2 335.7, 163.2 334.1 M 166.1 336.7 Q 167.1 336.7, 167.6 336.1 Q 168.2 335.4, 168.2 334.1 Q 168.2 332.9, 167.6 332.2 Q 167.1 331.6, 166.1 331.6 Q 165.2 331.6, 164.6 332.2 Q 164.1 332.9, 164.1 334.1 Q 164.1 335.4, 164.6 336.1 Q 165.2 336.7, 166.1 336.7 " fill="#FF0000"/>
<path class="atom-18" d="M 169.5 331.9 L 171.7 331.9 L 171.7 332.4 L 169.5 332.4 L 169.5 331.9 " fill="#FF0000"/>
<path class="atom-22" d="M 85.4 263.0 Q 85.4 261.4, 86.2 260.6 Q 86.9 259.8, 88.3 259.8 Q 89.6 259.8, 90.3 260.7 L 89.7 261.2 Q 89.2 260.5, 88.3 260.5 Q 87.4 260.5, 86.8 261.1 Q 86.3 261.8, 86.3 263.0 Q 86.3 264.3, 86.9 264.9 Q 87.4 265.6, 88.4 265.6 Q 89.1 265.6, 89.9 265.2 L 90.2 265.8 Q 89.9 266.0, 89.4 266.2 Q 88.9 266.3, 88.3 266.3 Q 86.9 266.3, 86.2 265.5 Q 85.4 264.6, 85.4 263.0 " fill="#00CC00"/>
<path class="atom-22" d="M 90.7 259.4 L 91.5 259.4 L 91.5 266.2 L 90.7 266.2 L 90.7 259.4 " fill="#00CC00"/>
</svg>